<svg width="348" height="308" viewBox="0 0 348 308" fill="none" xmlns="http://www.w3.org/2000/svg">
<path fill-rule="evenodd" clip-rule="evenodd" d="M198.068 72.9544C199.659 60.2333 189.768 48.7775 176.948 48.7775C164.13 48.7775 154.212 37.5451 155.799 24.826L156.269 21.0573C157.664 9.87519 148.945 0 137.676 0C128.205 0 120.223 7.06729 119.076 16.4685L117.547 29.0021C116.17 40.2911 106.586 48.7775 95.213 48.7775H89.5608C78.6115 48.7775 69.3838 56.9483 68.0584 67.8171L67.7983 69.9501C66.3625 81.7241 75.5508 92.101 87.412 92.101C99.2598 92.101 108.444 102.456 107.03 114.219L106.434 119.171C105.075 130.478 95.4828 138.986 84.0952 138.986H78.4784C67.5277 138.986 58.2982 147.156 56.9697 158.026L56.7072 160.173C55.2684 171.945 64.4549 182.323 76.315 182.323C88.1665 182.323 97.3504 192.686 95.9255 204.452L94.5695 215.648C93.2188 226.801 101.925 236.625 113.159 236.625C122.615 236.625 130.587 229.576 131.745 220.191L145.106 111.847C146.496 100.571 156.075 92.101 167.437 92.101H176.552C187.476 92.101 196.712 83.7938 198.068 72.9544Z" fill="#FDCD03"/>
<path fill-rule="evenodd" clip-rule="evenodd" d="M270.308 97.6394C281.261 97.6394 290.492 89.4658 291.817 78.5933L292.079 76.4477C293.514 64.6764 284.328 54.3019 272.469 54.3019C260.619 54.3019 251.435 43.9412 252.857 32.1766L254.211 20.9767C255.559 9.82283 246.852 0 235.617 0C226.159 0 218.185 7.05144 217.029 16.4384L203.677 124.776C202.287 136.053 192.708 144.524 181.346 144.524H172.234C161.307 144.524 152.067 152.837 150.711 163.68C149.12 176.402 159.012 187.862 171.833 187.862C184.652 187.862 194.571 199.096 192.983 211.816L192.515 215.567C191.119 226.749 199.839 236.625 211.108 236.625C220.58 236.625 228.562 229.556 229.707 220.153L231.23 207.642C232.605 196.351 242.191 187.862 253.565 187.862H259.21C270.163 187.862 279.394 179.688 280.72 168.815L280.981 166.673C282.416 154.9 273.228 144.524 261.368 144.524C249.518 144.524 240.334 134.166 241.752 122.401L242.349 117.447C243.711 106.144 253.302 97.6394 264.687 97.6394H270.308Z" fill="#FDCD03"/>
<path fill-rule="evenodd" clip-rule="evenodd" d="M5.71222 267C7.0377 267 8.11222 268.075 8.11222 269.4V280.898C8.11222 282.223 9.18673 283.298 10.5122 283.298H17.8443C19.1698 283.298 20.2443 282.223 20.2443 280.898V269.4C20.2443 268.075 21.3189 267 22.6443 267H25.9566C27.282 267 28.3566 268.075 28.3566 269.4V305.334C28.3566 306.66 27.282 307.734 25.9566 307.734H22.6443C21.3189 307.734 20.2443 306.66 20.2443 305.334V293.833C20.2443 292.508 19.1698 291.433 17.8443 291.433H10.5122C9.18674 291.433 8.11222 292.508 8.11222 293.833V305.334C8.11222 306.66 7.0377 307.734 5.71222 307.734H2.4C1.07452 307.734 0 306.66 0 305.334V269.4C0 268.075 1.07452 267 2.4 267H5.71222Z" fill="#FDCD03"/>
<path fill-rule="evenodd" clip-rule="evenodd" d="M106.432 267C107.758 267 108.832 268.075 108.832 269.4V280.898C108.832 282.223 109.907 283.298 111.232 283.298H118.617C119.942 283.298 121.017 282.223 121.017 280.898V269.4C121.017 268.075 122.091 267 123.417 267H126.765C128.091 267 129.165 268.075 129.165 269.4V305.334C129.165 306.66 128.091 307.734 126.765 307.734H123.417C122.091 307.734 121.017 306.66 121.017 305.334V293.833C121.017 292.508 119.942 291.433 118.617 291.433H111.232C109.907 291.433 108.832 292.508 108.832 293.833V305.334C108.832 306.66 107.758 307.734 106.432 307.734H103.084C101.758 307.734 100.684 306.66 100.684 305.334V269.4C100.684 268.075 101.758 267 103.084 267H106.432Z" fill="#FDCD03"/>
<path fill-rule="evenodd" clip-rule="evenodd" d="M80.1671 290.322C78.7943 289.825 77.4901 289.156 76.2847 288.332C74.8531 287.363 73.6039 286.148 72.5958 284.742C71.5053 283.256 70.9606 281.403 70.9606 279.184C70.9606 272.455 76.4121 267 83.1365 267C89.045 267 93.9708 271.212 95.079 276.799C95.3369 278.099 94.2378 279.184 92.9123 279.184H89.5326C88.2353 279.184 87.2261 278.069 86.4888 277.001C85.7331 275.907 84.4558 275.206 83.0278 275.249C80.8829 275.313 79.159 277.037 79.0941 279.184C79.0404 280.514 79.7112 281.767 80.8467 282.458C81.6661 283.034 82.5593 283.496 83.5037 283.834C83.7873 283.935 84.5643 284.167 85.8297 284.538C87.2375 284.972 88.5829 285.59 89.8271 286.379C91.2924 287.292 92.5765 288.466 93.6184 289.841C94.7451 291.297 95.3073 293.157 95.3048 295.425C95.3048 302.154 89.8533 307.609 83.129 307.609C77.2204 307.609 72.2946 303.397 71.1864 297.811C70.9285 296.51 72.0276 295.425 73.3531 295.425H76.7653C78.0626 295.425 79.0719 296.541 79.8093 297.608C80.5653 298.702 81.8428 299.403 83.2701 299.36C85.415 299.296 87.1388 297.572 87.2038 295.425C87.2038 293.712 86.5205 292.604 85.1539 292.097C83.7873 291.591 82.8591 291.246 82.3694 291.063C82.1184 290.995 81.3813 290.743 80.1671 290.322Z" fill="#FDCD03"/>
<path fill-rule="evenodd" clip-rule="evenodd" d="M51.1368 268.922L51.1234 268.893C50.7839 268.153 49.7315 268.155 49.3955 268.897L32.6804 306.168C32.3506 306.904 32.8886 307.734 33.6944 307.734H38.9472H39.2745C40.1194 307.734 40.8858 307.239 41.2335 306.469L43.2857 301.924C43.3628 301.739 43.5439 301.618 43.7447 301.618H47.0627C48.8084 301.618 49.9701 299.813 49.2474 298.224L47.0987 293.5C47.0976 293.498 47.0978 293.495 47.0992 293.493C47.1025 293.488 47.099 293.481 47.0931 293.481H47.0892C47.0823 293.481 47.0777 293.474 47.0805 293.468L48.3869 290.565C49.1197 288.937 51.4325 288.94 52.1605 290.57L53.4575 293.475C53.4588 293.478 53.4567 293.481 53.4535 293.481C53.4502 293.481 53.4481 293.484 53.4494 293.487L59.3757 306.521C59.7116 307.26 60.4485 307.734 61.2602 307.734H61.6137H66.8628C67.6684 307.734 68.2059 306.904 67.8757 306.169L51.1368 268.922Z" fill="#FDCD03"/>
<path fill-rule="evenodd" clip-rule="evenodd" d="M337.505 278.016C338.417 279.651 340.766 279.659 341.689 278.031L345.911 270.584C346.818 268.984 345.663 267 343.824 267H339.995C339.13 267 338.332 267.465 337.906 268.218L335.616 272.263C335.203 272.992 335.201 273.883 335.608 274.614L337.505 278.016Z" fill="#FDCD03"/>
<path fill-rule="evenodd" clip-rule="evenodd" d="M299.974 269.4C299.974 268.075 301.048 267 302.374 267H305.693C307.019 267 308.093 268.075 308.093 269.4V305.334C308.093 306.66 307.019 307.734 305.693 307.734H302.374C301.048 307.734 299.974 306.66 299.974 305.334V269.4Z" fill="#FDCD03"/>
<path fill-rule="evenodd" clip-rule="evenodd" d="M255.321 267.001C257.021 267.001 258.183 268.72 257.548 270.297L256.205 273.635C255.84 274.544 254.958 275.139 253.979 275.139H247.849C246.524 275.139 245.449 276.214 245.449 277.539V305.334C245.449 306.66 244.375 307.734 243.049 307.734H239.706C238.38 307.734 237.306 306.66 237.306 305.334V277.551C237.306 276.225 236.231 275.151 234.906 275.151H230.699C228.999 275.151 227.838 273.432 228.472 271.855L229.816 268.515C230.182 267.606 231.063 267.011 232.042 267.011L255.321 267.001Z" fill="#FDCD03"/>
<path fill-rule="evenodd" clip-rule="evenodd" d="M167.042 285.92C167.041 285.916 167.036 285.916 167.035 285.92C167.033 285.923 167.029 285.923 167.027 285.92L166.178 283.795L165.755 282.756C165.753 282.75 165.752 282.745 165.752 282.739C165.752 282.733 165.751 282.727 165.749 282.722L161.69 272.577C160.885 270.564 158.036 270.565 157.233 272.578L144.513 304.445C143.884 306.021 145.045 307.734 146.742 307.734H150.371C151.349 307.734 152.228 307.141 152.595 306.235L157.239 294.771C158.048 292.774 160.875 292.772 161.687 294.769L164.732 302.263C165.542 304.258 168.368 304.259 169.179 302.263L171.065 297.624C171.3 297.044 171.3 296.396 171.065 295.816L167.042 285.92Z" fill="#FDCD03"/>
<path fill-rule="evenodd" clip-rule="evenodd" d="M176.705 272.652C175.9 270.629 173.033 270.637 172.24 272.665L170.403 277.362C170.181 277.929 170.183 278.559 170.408 279.124L174.455 289.288L181.327 306.236C181.694 307.142 182.574 307.734 183.551 307.734H187.131C188.827 307.734 189.988 306.023 189.361 304.447L176.705 272.652Z" fill="#FDCD03"/>
<path fill-rule="evenodd" clip-rule="evenodd" d="M336.36 287.331C336.364 287.323 336.365 287.314 336.36 287.306L331.707 279.121C331.705 279.117 331.698 279.117 331.696 279.121C331.693 279.125 331.687 279.125 331.685 279.121L325.474 268.212C325.047 267.463 324.251 267 323.388 267H319.584C317.744 267 316.589 268.984 317.496 270.584L326.331 286.16C326.747 286.894 326.747 287.793 326.331 288.527L317.487 304.137C316.582 305.735 317.733 307.715 319.569 307.72L323.383 307.731C324.248 307.733 325.048 307.269 325.476 306.516L329.603 299.253C330.523 297.633 332.857 297.634 333.777 299.253L337.902 306.519C338.329 307.27 339.126 307.734 339.989 307.734H343.818C345.658 307.734 346.813 305.748 345.904 304.148L336.359 287.356C336.355 287.348 336.355 287.339 336.36 287.331Z" fill="#FDCD03"/>
<path fill-rule="evenodd" clip-rule="evenodd" d="M290.132 289.428C294.63 282.958 293.039 274.062 286.578 269.559C284.2 267.901 281.373 267.009 278.477 267C278.232 267 278.034 267.199 278.034 267.443V274.707C278.034 274.952 278.232 275.151 278.477 275.151C281.85 275.233 284.516 278.037 284.436 281.413C284.356 284.674 281.734 287.298 278.477 287.378H274.795C273.469 287.378 272.395 286.304 272.395 284.978V275.169C272.395 275.159 272.403 275.151 272.413 275.151C272.423 275.151 272.431 275.143 272.431 275.133V269.4C272.431 268.075 271.356 267 270.031 267H266.648C265.322 267 264.248 268.075 264.248 269.4V305.334C264.248 306.66 265.322 307.734 266.648 307.734H269.995C271.32 307.734 272.395 306.66 272.395 305.334V300.462C272.395 298.114 275.42 297.163 276.763 299.089L282.077 306.707C282.526 307.351 283.261 307.734 284.045 307.734H288.128C290.068 307.734 291.206 305.552 290.096 303.961L285.308 297.098C284.413 295.815 284.978 294.031 286.286 293.173C287.788 292.188 289.095 290.919 290.132 289.428Z" fill="#FDCD03"/>
<path fill-rule="evenodd" clip-rule="evenodd" d="M212.386 268.922L212.372 268.893C212.035 268.154 210.985 268.157 210.65 268.897L193.992 306.17C193.664 306.905 194.202 307.734 195.007 307.734H200.238H200.564C201.407 307.734 202.171 307.24 202.516 306.472L204.562 301.924C204.639 301.739 204.82 301.618 205.021 301.618H208.318C210.062 301.618 211.224 299.816 210.504 298.227L208.361 293.5C208.36 293.498 208.361 293.495 208.363 293.493C208.367 293.488 208.364 293.481 208.358 293.481H208.352C208.346 293.481 208.341 293.474 208.344 293.468L209.642 290.573C210.373 288.945 212.685 288.948 213.411 290.578L214.7 293.474C214.701 293.477 214.699 293.481 214.695 293.481C214.692 293.481 214.689 293.485 214.691 293.488L220.598 306.524C220.932 307.261 221.666 307.734 222.475 307.734H222.827H228.059C228.862 307.734 229.398 306.907 229.07 306.174L212.386 268.922Z" fill="#FDCD03"/>
</svg>
