<svg width="674" height="242" viewBox="0 0 674 242" fill="none" xmlns="http://www.w3.org/2000/svg">
<path fill-rule="evenodd" clip-rule="evenodd" d="M28.0347 130.754C25.1217 132.816 21.5447 134.047 17.6813 134.047C7.91117 134.047 0.176514 126.175 0.176514 116.889C0.176514 107.402 7.91117 99.7315 17.6813 99.7315C18.8828 99.7315 20.0566 99.8475 21.1913 100.069C23.938 100.604 27.1316 98.9176 27.6399 96.1879C31.8715 73.46 51.9811 56.2825 76.6489 56.2825C104.461 56.2825 127.058 78.118 127.058 105.125C127.058 127.124 111.406 146.337 90.1212 152.163C88.2531 152.674 86.9868 154.427 86.9868 156.349C86.9868 172.242 73.3992 185.718 56.6759 185.718C39.9527 185.718 26.7134 172.242 26.7134 156.349C26.7134 148.724 29.6323 141.784 34.4601 136.568C35.6986 135.23 35.9181 133.203 34.9096 131.687C33.4774 129.534 30.1514 129.255 28.0347 130.754ZM66.2922 96.8841C66.2922 90.7178 71.3194 85.7322 77.6695 85.7322C84.0197 85.7322 89.1792 90.7178 89.1792 96.8841C89.1792 102.919 84.0197 108.036 77.6695 108.036C71.3194 108.036 66.2922 102.919 66.2922 96.8841ZM95.844 96.8841C95.844 90.7178 100.871 85.7322 107.221 85.7322C113.571 85.7322 118.731 90.7178 118.731 96.8841C118.731 102.919 113.571 108.036 107.221 108.036C100.871 108.036 95.844 102.919 95.844 96.8841Z" fill="#161616"/>
<path d="M98.1462 170.384C98.1462 161.907 105.058 155.052 113.788 155.052C122.518 155.052 129.612 161.907 129.612 170.384C129.612 178.681 122.518 185.716 113.788 185.716C105.058 185.716 98.1462 178.681 98.1462 170.384Z" fill="#161616"/>
<path d="M632.191 179.234C608.97 179.234 590.993 163.841 590.993 137.279C590.993 110.567 609.12 95.1737 632.191 95.1737C655.412 95.1737 673.239 110.567 673.239 137.279C673.239 163.841 655.412 179.234 632.191 179.234ZM612.116 137.279C612.116 153.126 621.554 160.672 632.191 160.672C642.828 160.672 652.116 153.126 652.116 137.279C652.116 121.282 642.828 113.736 632.191 113.736C621.554 113.736 612.116 121.282 612.116 137.279Z" fill="#161616"/>
<path d="M545.026 179.234C522.854 179.234 505.176 163.69 505.176 137.129C505.176 110.869 523.603 95.1737 544.876 95.1737C569.295 95.1737 586.224 114.038 582.778 142.712H525.85C527.648 155.54 535.139 161.879 545.026 161.879C552.666 161.879 559.108 158.257 561.056 151.617H582.479C578.883 168.972 564.651 179.234 545.026 179.234ZM526.45 128.375H561.056C560.606 118.113 554.165 112.529 544.726 112.529C536.487 112.529 528.996 117.509 526.45 128.375Z" fill="#161616"/>
<path d="M450.214 179.234C432.087 179.234 415.308 164.142 415.308 137.279C415.308 110.265 432.087 95.1736 450.214 95.1736C460.85 95.1736 468.79 99.2484 473.584 105.436V64.5376H494.708V176.97H474.333V168.217C469.539 174.707 461.45 179.234 450.214 179.234ZM436.731 137.279C436.731 153.276 445.27 160.52 455.157 160.52C464.895 160.52 473.584 152.673 473.584 137.279C473.584 121.131 465.045 113.887 455.157 113.887C445.27 113.887 436.731 121.131 436.731 137.279Z" fill="#161616"/>
<path d="M383.743 176.971V97.4376H404.866V176.971H383.743Z" fill="#161616"/>
<path d="M394.224 62.7543C386.533 62.7543 380.444 68.8878 380.444 76.474C380.444 83.8987 386.533 90.1936 394.224 90.1936C401.914 90.1936 408.163 83.8987 408.163 76.474C408.163 68.8878 401.914 62.7543 394.224 62.7543Z" fill="#161616"/>
<path d="M213.071 176.97V97.4375H233.445V107.096C236.89 101.663 244.83 95.1737 257.564 95.1737C275.691 95.1737 286.328 107.851 286.328 125.055V176.97H265.205V129.432C265.205 120.98 260.111 113.887 250.973 113.887C241.684 113.887 234.194 121.282 234.194 131.696V176.97H213.071Z" fill="#161616"/>
<path d="M178.212 176.971V97.4376H199.336V176.971H178.212Z" fill="#161616"/>
<path d="M188.693 62.7543C181.002 62.7543 174.914 68.8878 174.914 76.474C174.914 83.8987 181.002 90.1936 188.693 90.1936C196.384 90.1936 202.633 83.8987 202.633 76.474C202.633 68.8878 196.384 62.7543 188.693 62.7543Z" fill="#161616"/>
<path d="M332.151 179.246C323.176 179.246 315.205 173.469 312.352 164.898L289.895 97.4376H311.917L330.525 160.203C330.767 161.021 331.515 161.582 332.362 161.582C333.21 161.582 333.957 161.021 334.2 160.203L352.808 97.4376H374.83L352.373 164.898C349.519 173.469 341.548 179.246 332.574 179.246H332.151Z" fill="#161616"/>
</svg>
